<svg xmlns="http://www.w3.org/2000/svg" width="24" height="24" viewBox="0 0 24 24" fill="none"><path d="M12 13.8555C13.0355 13.8555 13.875 13.016 13.875 11.9805C13.875 10.9449 13.0355 10.1055 12 10.1055C10.9645 10.1055 10.125 10.9449 10.125 11.9805C10.125 13.016 10.9645 13.8555 12 13.8555Z" fill="#00D8FF"></path><path d="M12 16.2795C9.74635 16.334 7.49835 16.0302 5.34 15.3795C4.34297 15.0634 3.41305 14.5655 2.59725 13.911C2.28595 13.6873 2.0267 13.399 1.83731 13.0658C1.64791 12.7326 1.53284 12.3623 1.5 11.9805C1.5 10.7407 2.862 9.52571 5.1435 8.73071C7.35955 8.02627 9.67494 7.68486 12 7.71971C14.294 7.68766 16.5784 8.02289 18.7665 8.71271C19.7267 9.01882 20.6251 9.49265 21.42 10.1122C21.726 10.3254 21.9813 10.6032 22.168 10.9261C22.3546 11.249 22.468 11.6089 22.5 11.9805C22.5 13.269 20.9775 14.5747 18.525 15.3862C16.4084 16.0157 14.2079 16.317 12 16.2795ZM12 8.61671C9.77559 8.58697 7.56062 8.91153 5.43825 9.57821C3.33825 10.311 2.397 11.313 2.397 11.9782C2.397 12.6742 3.40875 13.7685 5.63025 14.5282C7.69505 15.1476 9.84496 15.4359 12 15.3825C14.1123 15.4202 16.2179 15.1344 18.2438 14.535C20.55 13.7707 21.6 12.675 21.6 11.9805C21.5622 11.7421 21.4753 11.5142 21.3449 11.3112C21.2145 11.1081 21.0435 10.9343 20.8425 10.8007C20.1313 10.2511 19.3288 9.83114 18.4718 9.56021C16.3785 8.90302 14.1937 8.58451 12 8.61671Z" fill="#00D8FF"></path><path d="M7.7402 21.3322C7.39032 21.3403 7.04457 21.2554 6.7382 21.0862C5.6642 20.4667 5.2922 18.6802 5.74295 16.3065C6.23993 14.0348 7.10105 11.8585 8.29295 9.86173C9.41099 7.85856 10.8423 6.04716 12.5327 4.49623C13.2776 3.81726 14.1368 3.27564 15.0707 2.89648C15.4085 2.73818 15.7769 2.65613 16.1499 2.65613C16.523 2.65613 16.8914 2.73818 17.2292 2.89648C18.3459 3.53998 18.7157 5.51098 18.1945 8.04073C17.6821 10.1892 16.8434 12.2463 15.7074 14.1405C14.6287 16.12 13.2425 17.9156 11.6004 19.4602C10.8285 20.1658 9.9327 20.7224 8.9582 21.102C8.56806 21.2468 8.15627 21.3246 7.7402 21.3322ZM9.06995 10.3072C7.93302 12.2192 7.10769 14.3 6.62495 16.4715C6.2102 18.6577 6.60845 19.9725 7.18745 20.307C7.78745 20.6542 9.24395 20.325 11.0124 18.78C12.58 17.3002 13.9031 15.5814 14.9327 13.6875C16.0209 11.8766 16.8255 9.90984 17.3184 7.85548C17.8089 5.47423 17.3852 4.01623 16.7837 3.66973C16.5583 3.58335 16.3173 3.54468 16.0762 3.55617C15.835 3.56766 15.5989 3.62906 15.3827 3.73648C14.5515 4.07949 13.7872 4.56645 13.1252 5.17498C11.5102 6.66057 10.143 8.39468 9.0752 10.3117L9.06995 10.3072Z" fill="#00D8FF"></path><path d="M16.258 21.342C15.2418 21.342 13.951 20.727 12.607 19.5712C10.8871 18.0062 9.43151 16.1733 8.29678 14.1435C7.11983 12.1743 6.26553 10.0294 5.76628 7.79024C5.54976 6.8051 5.50964 5.78938 5.64778 4.79023C5.67971 4.41959 5.79258 4.06046 5.9784 3.73818C6.16423 3.4159 6.4185 3.13831 6.72328 2.92498C7.83853 2.27923 9.73078 2.94298 11.662 4.65748C13.2675 6.17412 14.6308 7.92801 15.7045 9.85799C16.8808 11.7812 17.744 13.8791 18.262 16.0732C18.4879 17.0945 18.5227 18.1488 18.3648 19.1827C18.3272 19.564 18.2076 19.9327 18.0142 20.2635C17.8208 20.5942 17.5582 20.8792 17.2443 21.099C16.9429 21.266 16.6025 21.3499 16.258 21.342ZM9.07303 13.692C10.1616 15.6318 11.552 17.386 13.192 18.8887C14.8788 20.34 16.2168 20.652 16.792 20.3137C17.392 19.965 17.8345 18.5415 17.3785 16.2382C16.8789 14.1434 16.0509 12.1409 14.9253 10.305C13.9007 8.45783 12.5993 6.77838 11.0665 5.32498C9.24853 3.71098 7.77403 3.35023 7.17328 3.69823C6.98604 3.8504 6.83238 4.03973 6.72201 4.25427C6.61163 4.46882 6.54695 4.70392 6.53203 4.94473C6.41278 5.8358 6.45163 6.74091 6.64678 7.61848C7.12701 9.75984 7.94634 11.8107 9.07378 13.6935L9.07303 13.692Z" fill="#00D8FF"></path></svg>