<svg xmlns="http://www.w3.org/2000/svg" width="24" height="24" viewBox="0 0 24 24" fill="none"><path d="M4.25 0.300049C1.9 0.300049 0 2.20005 0 4.55005V19.4501C0 21.8001 1.9 23.7001 4.25 23.7001H19.75C22.1 23.7001 24 21.8001 24 19.4501V4.55005C24 2.20005 22.1 0.300049 19.75 0.300049H4.25ZM15.56 5.43005H17.59C17.64 5.42005 17.68 5.46005 17.69 5.50005V15.04C17.69 15.22 17.7 15.42 17.71 15.64C17.73 15.85 17.74 16.05 17.75 16.22C17.75 16.29 17.72 16.35 17.65 16.38C17.13 16.6 16.58 16.76 16.02 16.8601C15.52 16.9501 15 17 14.48 17C13.74 17.01 13 16.86 12.33 16.55C11.7 16.26 11.18 15.78 10.82 15.19C10.45 14.58 10.27 13.82 10.27 12.91C10.26 12.17 10.45 11.44 10.82 10.8C11.2 10.15 11.75 9.61005 12.41 9.25005C13.11 8.86005 13.95 8.67005 14.94 8.67005C14.99 8.67005 15.06 8.67005 15.15 8.68005C15.24 8.69005 15.34 8.69005 15.46 8.70005V5.54005C15.46 5.47005 15.49 5.43005 15.56 5.43005ZM6.63 6.29005H8.58C8.64 6.28005 8.7 6.32005 8.71 6.39005C8.72 6.40005 8.72 6.41005 8.72 6.42005V16.68C8.72 16.7901 8.67 16.84 8.58 16.84H6.62C6.53 16.84 6.49 16.7901 6.49 16.68V6.42005C6.49 6.33005 6.54 6.29005 6.63 6.29005ZM14.86 10.53C14.47 10.53 14.08 10.61 13.73 10.79C13.39 10.96 13.1 11.21 12.88 11.53C12.66 11.85 12.55 12.28 12.55 12.8C12.54 13.15 12.6 13.5 12.72 13.83C12.82 14.1 12.97 14.34 13.17 14.54C13.36 14.72 13.59 14.86 13.85 14.94C14.12 15.03 14.4 15.07 14.68 15.07C14.83 15.07 14.97 15.06 15.1 15.05C15.23 15.06 15.35 15.04 15.46 15V10.6C15.2635 10.5531 15.0621 10.5296 14.86 10.53Z" fill="#9D1A32"></path></svg>