<svg xmlns="http://www.w3.org/2000/svg" width="24" height="27" viewBox="0 0 24 27" fill="none"><g clip-path="url(#clip0)"><path d="M22.7402 3.81169C22.6629 1.7955 20.8908 1.37259 20.8908 1.37259C20.8908 1.37259 14.7485 0.446997 12.0577 0.110997C9.36602 -0.226784 9.53355 2.38162 9.53355 2.38162C9.53355 2.38162 10.1448 21.3927 10.2083 23.7475C10.2804 26.553 12.8991 26.1015 12.8991 26.1015L22.1532 24.5012C23.836 24.1643 23.9194 22.063 23.9194 22.063C23.9194 22.063 22.8263 6.01275 22.7402 3.81169C22.8262 6.01275 22.6629 1.7955 22.7402 3.81169ZM20.6702 19.961L13.789 20.6738C13.789 20.6738 11.785 20.9794 11.74 18.5447C11.707 16.7509 11.3101 6.47559 11.3101 6.47559C11.3101 6.47559 11.172 4.5914 13.2342 4.7459C15.3389 4.90219 20.382 5.286 20.382 5.286C20.382 5.286 21.7322 5.60728 21.7912 7.14591C21.8545 8.81822 22.4372 18.1054 22.4372 18.1054C22.4372 18.1054 22.5891 19.6318 20.6702 19.961Z" fill="#202020"></path><path d="M3.82473 17.1909L2.55348 17.2812C2.55348 17.2812 1.27098 17.4549 1.24155 16.0517C1.22073 15.0176 1.0922 9.14795 1.0922 9.14795C1.0922 9.14795 1.00361 8.06176 2.32258 8.15036C2.65689 8.17201 3.13089 8.20239 3.65448 8.2337C3.6363 7.26029 3.62073 6.40932 3.60855 5.7617C2.88264 5.70695 2.20361 5.64789 1.71826 5.5967C-0.0244541 5.40479 0.0823273 6.86786 0.0823273 6.86786C0.0823273 6.86786 0.292609 17.6329 0.331702 18.9527C0.379515 20.526 2.07348 20.2707 2.07348 20.2707L3.88211 20.0771C3.86645 19.2965 3.84555 18.3015 3.82483 17.191L3.82473 17.1909Z" fill="#202020"></path><path d="M8.88077 7.40622C8.87576 7.27927 8.85446 7.1535 8.8174 7.03197C8.2608 6.98688 6.86364 6.62304 6.4157 7.09629C6.13173 7.39413 6.24892 8.02188 6.25586 8.37879L7.2692 8.43597C7.2692 8.43597 8.13311 8.62094 8.17052 9.5066C8.21046 10.4722 8.20521 15.8807 8.20521 15.8807C8.20521 15.8807 8.30243 16.7629 7.07645 16.9496L6.43304 16.9974C6.43651 17.1892 6.43998 17.3438 6.44167 17.4584C6.46867 19.0006 8.10883 18.5065 9.13774 18.4066C9.22634 16.7707 9.06912 15.0854 9.03274 13.4487C8.9884 11.4351 8.9719 9.4181 8.88077 7.40622C8.87468 7.26907 8.93627 8.63744 8.88077 7.40622V7.40622Z" fill="#202020"></path><path d="M9.41291 19.0388L7.5591 19.2177C7.5591 19.2177 5.83035 19.4659 5.79304 17.4741C5.76613 16.0041 5.59241 7.67198 5.59241 7.67198C5.59241 7.67198 5.4726 6.13167 7.24654 6.25495C7.70235 6.28626 8.32935 6.33745 9.01185 6.3922C8.96057 4.79367 8.91969 3.53282 8.89888 2.88342C7.96466 2.7922 7.08416 2.70023 6.43298 2.62561C4.08848 2.35973 4.23623 4.43236 4.23623 4.43236C4.23623 4.43236 4.51494 19.7159 4.5696 21.5836C4.63298 23.816 6.91401 23.4574 6.91401 23.4574L9.53882 23.1213C9.51276 22.2523 9.46851 20.7926 9.41291 19.0387V19.0388Z" fill="#202020"></path><path d="M13.1848 5.39537C12.8567 5.36931 12.4581 5.39106 12.215 5.64719C11.9579 5.91634 11.9536 6.29837 11.9684 6.64394C12.8983 6.72475 13.5729 6.78456 13.5729 6.78456C13.5729 6.78456 14.7347 7.04603 14.7877 8.305C14.8415 9.67431 15.1741 17.1147 15.1741 17.1147C15.1741 17.1147 15.3043 18.3659 13.6528 18.6359L12.4025 18.7557C12.5684 20.7102 15.0959 19.8854 16.3887 19.7517C16.256 16.8125 15.8444 7.72244 15.7515 5.58812C14.8962 5.52106 14.0406 5.45681 13.1848 5.39537C13.1206 5.39022 13.8352 5.44131 13.1848 5.39537V5.39537Z" fill="#202020"></path></g><defs><clipPath id="clip0"><rect width="24" height="26.1563" fill="white"></rect></clipPath></defs></svg>