<svg xmlns="http://www.w3.org/2000/svg" width="24" height="22" viewBox="0 0 24 22" fill="none"><g clip-path="url(#clip0)"><path d="M6.92471 0C6.27652 0.00140625 5.64202 0.369375 5.31578 0.930656L0.240717 9.74653C-0.0805644 10.3093 -0.0805644 11.045 0.240717 11.6077L5.31578 20.4237C5.64202 20.985 6.27652 21.3531 6.92471 21.3544H17.0748C17.723 21.353 18.3575 20.985 18.6838 20.4237L23.7588 11.6077C24.0801 11.045 24.08 10.3093 23.7588 9.74653L18.6838 0.930656C18.3575 0.369281 17.723 0.0013125 17.0748 0H6.92471ZM7.01687 5.15747C7.03084 5.15606 7.04546 5.15606 7.05943 5.15747H8.81012C8.84902 5.15873 8.88697 5.16981 8.92044 5.18968C8.95391 5.20954 8.98181 5.23755 9.00155 5.27109L11.9715 10.5635C11.9865 10.5897 11.996 10.6188 11.9996 10.6488C12.0033 10.6188 12.0129 10.5897 12.0279 10.5635L14.9907 5.27109C15.0111 5.23659 15.0401 5.20799 15.0749 5.18807C15.1097 5.16815 15.1491 5.15761 15.1891 5.15747H16.9399C17.0949 5.15878 17.211 5.35406 17.1384 5.49131L14.2394 10.6772L17.1384 15.8559C17.2179 15.9939 17.099 16.1982 16.9399 16.1969H15.1891C15.1484 16.196 15.1085 16.1844 15.0737 16.1632C15.0388 16.142 15.0102 16.112 14.9907 16.0762L12.0279 10.7837C12.0129 10.7575 12.0033 10.7284 11.9997 10.6985C11.996 10.7285 11.9864 10.7575 11.9715 10.7838L9.00146 16.0762C8.98258 16.111 8.95508 16.1404 8.92159 16.1615C8.88811 16.1826 8.84976 16.1948 8.81021 16.1969H7.05934C6.90024 16.1983 6.78137 15.9939 6.86087 15.8559L9.7599 10.6772L6.86087 5.49131C6.7914 5.36606 6.87615 5.18419 7.01677 5.15747H7.01687Z" fill="#3498DB"></path></g><defs><clipPath id="clip0"><rect width="24" height="21.375" fill="white"></rect></clipPath></defs></svg>