<svg xmlns="http://www.w3.org/2000/svg" width="24" height="26" viewBox="0 0 24 26" fill="none"><g clip-path="url(#clip0)"><path d="M23.0722 7.62425C23.072 7.1882 22.9788 6.8029 22.7902 6.4723C22.6049 6.14703 22.3275 5.87448 21.9554 5.65899C18.8837 3.88783 15.809 2.12209 12.7383 0.349126C11.9104 -0.128804 11.1078 -0.11129 10.2861 0.373501C9.06344 1.09446 2.94215 4.60148 1.11809 5.658C0.366889 6.09295 0.00135417 6.75848 0.00117361 7.62343C0 11.1853 0.00117361 14.7472 0 18.3092C0 18.7356 0.0894653 19.1135 0.26975 19.4392C0.45509 19.7742 0.736396 20.0542 1.1171 20.2746C2.94125 21.3311 9.06335 24.8379 10.2857 25.5591C11.1078 26.0441 11.9104 26.0615 12.7386 25.5835C15.8094 23.8104 18.8842 22.0447 21.9564 20.2735C22.3371 20.0532 22.6184 19.773 22.8037 19.4383C22.9837 19.1125 23.0734 18.7347 23.0734 18.3082C23.0734 18.3082 23.0734 11.1862 23.0722 7.62425Z" fill="#A179DC"></path><path d="M11.572 12.9315L0.269775 19.439C0.455116 19.7741 0.736421 20.0541 1.11712 20.2745C2.94128 21.331 9.06337 24.8377 10.2857 25.559C11.1078 26.044 11.9105 26.0614 12.7386 25.5833C15.8094 23.8103 18.8842 22.0445 21.9564 20.2734C22.3371 20.0531 22.6184 19.7729 22.8037 19.4381L11.572 12.9315Z" fill="#280068"></path><path d="M23.0722 7.62417C23.0721 7.18813 22.9788 6.80283 22.7902 6.47223L11.572 12.9316L22.8038 19.4382C22.9838 19.1125 23.0732 18.7347 23.0734 18.3081C23.0734 18.3081 23.0734 11.1862 23.0722 7.62417Z" fill="#390091"></path><path d="M18.2264 10.4988V11.7152H19.4428V10.4988H20.051V11.7152H21.2674V12.3234H20.051V13.5397H21.2674V14.1479H20.051V15.3643H19.4428V14.1479H18.2264V15.3643H17.6182V14.1479H16.4019V13.5397H17.6182V12.3234H16.4019V11.7152H17.6182V10.4988H18.2264ZM19.4428 12.3233H18.2264V13.5397H19.4428V12.3234V12.3233Z" fill="white"></path><path d="M11.5967 4.38986C14.7695 4.38986 17.5395 6.1129 19.0232 8.67408L19.0087 8.64944L15.2757 10.7988C14.5403 9.55357 13.1921 8.71317 11.6454 8.69584L11.5967 8.69557C9.23814 8.69557 7.32606 10.6077 7.32606 12.9662C7.32529 13.7095 7.5195 14.4401 7.8893 15.085C8.62543 16.3701 10.0093 17.2368 11.5967 17.2368C13.194 17.2368 14.5857 16.3591 15.3181 15.0602L15.3003 15.0914L19.0276 17.2507C17.5601 19.7902 14.8281 21.5079 11.6923 21.5421L11.5967 21.5426C8.414 21.5426 5.63615 19.8089 4.15614 17.2342C3.43365 15.9773 3.02026 14.5201 3.02026 12.9662C3.02026 8.22965 6.85996 4.38977 11.5967 4.38977L11.5967 4.38986Z" fill="white"></path></g><defs><clipPath id="clip0"><rect width="23.1111" height="26" fill="white"></rect></clipPath></defs></svg>