<svg xmlns="http://www.w3.org/2000/svg" width="27" height="24" viewBox="0 0 27 24" fill="none"><g clip-path="url(#clip0)"><path d="M22.1561 7.77105C21.8693 7.67266 21.5801 7.58151 21.2887 7.49768C21.3377 7.29768 21.3827 7.1001 21.4227 6.906C22.0794 3.71852 21.6501 1.15063 20.1839 0.305156C18.7781 -0.50537 16.4791 0.339788 14.1572 2.36052C13.9283 2.56003 13.7046 2.76529 13.4861 2.9761C13.3399 2.83592 13.191 2.69846 13.0397 2.56379C10.6062 0.403156 8.16706 -0.507475 6.70242 0.34042C5.2979 1.15347 4.882 3.56747 5.47316 6.58831C5.53197 6.8875 5.59838 7.18514 5.67232 7.48095C5.32705 7.57905 4.9939 7.68347 4.67505 7.79463C1.822 8.78937 0 10.3482 0 11.9652C0 13.6352 1.956 15.3102 4.92758 16.3259C5.16849 16.4079 5.41141 16.4839 5.65611 16.5538C5.57664 16.8724 5.50608 17.1931 5.44453 17.5157C4.88095 20.4841 5.32105 22.8411 6.72179 23.6489C8.16853 24.4833 10.5967 23.6258 12.9611 21.5589C13.1528 21.3909 13.3403 21.2181 13.5234 21.0407C13.76 21.269 14.0029 21.4906 14.2518 21.7054C16.5421 23.6761 18.804 24.4719 20.2034 23.6618C21.6487 22.8251 22.1185 20.2931 21.5086 17.2125C21.4606 16.9712 21.4067 16.731 21.3471 16.4923C21.5176 16.4418 21.685 16.3898 21.8481 16.3357C24.9374 15.3122 26.9474 13.6575 26.9474 11.9652C26.9474 10.3423 25.0665 8.77295 22.1561 7.77105ZM21.4861 15.2431C21.3387 15.2918 21.1876 15.3388 21.0335 15.3846C20.6924 14.3049 20.2322 13.1569 19.669 11.9707C20.2064 10.8128 20.649 9.67947 20.9804 8.60684C21.2561 8.68663 21.5236 8.77074 21.7815 8.85947C24.2752 9.718 25.7962 10.9872 25.7962 11.9652C25.7962 13.0068 24.1535 14.3592 21.4861 15.2431ZM20.3794 17.4361C20.6491 18.7982 20.6875 20.0298 20.5089 20.9926C20.3484 21.8578 20.0257 22.4345 19.6265 22.6656C18.7774 23.1572 16.9613 22.5182 15.0026 20.8327C14.7711 20.6331 14.5451 20.427 14.3251 20.2148C15.0844 19.3844 15.8433 18.4191 16.5839 17.3468C17.8866 17.2313 19.1174 17.0422 20.2335 16.7842C20.2884 17.006 20.3373 17.2235 20.3794 17.4361ZM9.18695 22.5806C8.35727 22.8736 7.69642 22.882 7.29695 22.6517C6.44695 22.1615 6.09358 20.2689 6.57558 17.7304C6.63288 17.4304 6.69848 17.1321 6.77232 16.8358C7.87611 17.08 9.0979 17.2556 10.4037 17.3615C11.1494 18.4106 11.9301 19.3749 12.717 20.2194C12.5497 20.3812 12.3786 20.5388 12.2036 20.6922C11.158 21.6061 10.1103 22.2545 9.18695 22.5806ZM5.3 15.2366C3.986 14.7875 2.90084 14.2038 2.15705 13.5668C1.48863 12.9945 1.15126 12.4262 1.15126 11.9652C1.15126 10.9839 2.61411 9.73231 5.054 8.88168C5.35011 8.77852 5.66 8.68116 5.98158 8.58979C6.31884 9.68663 6.76116 10.8335 7.29495 11.9932C6.75421 13.17 6.30558 14.3352 5.96505 15.4449C5.7417 15.381 5.51995 15.3115 5.3 15.2366ZM6.60295 6.36716C6.09653 3.77905 6.43284 1.82674 7.27927 1.33674C8.18074 0.81484 10.1742 1.55895 12.2754 3.42463C12.4124 3.54657 12.5472 3.67097 12.6797 3.79779C11.8967 4.63852 11.1232 5.59568 10.3841 6.63863C9.11674 6.7561 7.90358 6.94474 6.78821 7.19747C6.71949 6.92234 6.65772 6.64551 6.60295 6.36726V6.36716ZM18.2269 9.23747C17.9634 8.78241 17.6902 8.33308 17.4074 7.88979C18.2672 7.99853 19.091 8.14284 19.8645 8.31926C19.6323 9.06368 19.3429 9.84189 19.0021 10.6398C18.7531 10.1672 18.4946 9.6997 18.2269 9.23747ZM13.4866 4.62052C14.0176 5.19579 14.5494 5.838 15.0724 6.53484C14.0114 6.48473 12.9486 6.48452 11.8875 6.53421C12.4111 5.84379 12.9474 5.20242 13.4866 4.62052ZM8.716 9.24537C8.45162 9.70388 8.19797 10.1685 7.95527 10.6388C7.62011 9.84379 7.33327 9.062 7.09906 8.30705C7.8679 8.13505 8.68779 7.99442 9.54211 7.88768C9.25615 8.33368 8.98071 8.78633 8.716 9.24526V9.24537ZM9.56664 16.1245C8.684 16.026 7.85179 15.8926 7.08316 15.7253C7.32106 14.9568 7.61421 14.1584 7.95663 13.3463C8.2003 13.817 8.455 14.2819 8.72053 14.7406C8.99358 15.2122 9.27632 15.6741 9.56664 16.1245ZM13.5184 19.3908C12.9727 18.8022 12.4285 18.1509 11.8971 17.4505C12.4131 17.4707 12.9391 17.4811 13.4737 17.4811C14.023 17.4811 14.5659 17.4687 15.1003 17.4449C14.5756 18.158 14.0458 18.8102 13.5184 19.3908ZM19.013 13.3048C19.3732 14.1259 19.6767 14.9201 19.9178 15.6754C19.1365 15.8537 18.293 15.9973 17.4041 16.1039C17.6889 15.6524 17.9647 15.1952 18.2314 14.7327C18.5025 14.2626 18.7631 13.7865 19.013 13.3048ZM17.2342 14.1576C16.826 14.8667 16.3949 15.5623 15.9415 16.2434C15.1202 16.3015 14.2971 16.3304 13.4737 16.33C12.6351 16.33 11.8194 16.3039 11.0339 16.2529C10.5687 15.5735 10.1293 14.8766 9.71674 14.1639H9.71685C9.30624 13.455 8.9227 12.7307 8.56706 11.9926C8.92179 11.2544 9.30416 10.5298 9.71337 9.82031L9.71327 9.82042C10.1223 9.11076 10.5582 8.41689 11.0199 7.74031C11.8213 7.67968 12.6431 7.6481 13.4736 7.6481H13.4737C14.308 7.6481 15.1308 7.68 15.932 7.74105C16.3891 8.41661 16.8221 9.1081 17.2304 9.81421C17.641 10.5221 18.0284 11.2432 18.3921 11.9763C18.0322 12.7169 17.646 13.4445 17.2342 14.1576ZM19.609 1.30242C20.5113 1.82284 20.8622 3.92147 20.2953 6.67358C20.2591 6.84916 20.2184 7.028 20.1742 7.20937C19.0561 6.95126 17.8421 6.75937 16.5711 6.6401C15.8306 5.58568 15.0634 4.62705 14.2932 3.79716C14.495 3.60258 14.7017 3.41305 14.913 3.22874C16.9024 1.49747 18.7618 0.813893 19.609 1.30242ZM13.4737 9.55884C14.8026 9.55884 15.88 10.6362 15.88 11.9652C15.88 13.2941 14.8026 14.3715 13.4737 14.3715C12.1447 14.3715 11.0674 13.2941 11.0674 11.9652C11.0674 10.6362 12.1447 9.55884 13.4737 9.55884Z" fill="#00D8FF"></path></g><defs><clipPath id="clip0"><rect width="26.9474" height="24" fill="white"></rect></clipPath></defs></svg>