<svg xmlns="http://www.w3.org/2000/svg" width="24" height="24" viewBox="0 0 24 24" fill="none"><g clip-path="url(#clip0)"><path d="M5.33442 0H18.6282C19.275 0 19.9032 0.103125 20.5125 0.31875C21.3938 0.6375 22.1907 1.2 22.7907 1.93125C23.4 2.6625 23.8032 3.5625 23.9438 4.5C24 4.84688 24.0094 5.19375 24.0094 5.54062V18.5062C24.0094 18.9187 23.9907 19.3406 23.9063 19.7438C23.7188 20.6719 23.2782 21.5438 22.6407 22.2469C22.0125 22.95 21.1875 23.475 20.2969 23.7562C19.7532 23.925 19.1907 24 18.6188 24C18.3657 24 5.29692 24 5.10004 23.9906C4.14379 23.9437 3.19692 23.6344 2.40004 23.1C1.62192 22.575 0.984415 21.8438 0.571915 21C0.215665 20.2781 0.0375402 19.4719 0.0375402 18.6656V5.33438C0.0187902 4.5375 0.18754 3.75 0.534415 3.0375C0.93754 2.19375 1.56567 1.45312 2.34379 0.928125C3.14067 0.384375 4.07817 0.065625 5.03442 0.01875C5.12817 0 5.23129 0 5.33442 0Z" fill="url(#paint0_linear)"></path><path d="M20.25 19.6313C20.1656 19.5 20.0719 19.3688 19.9687 19.2469C19.7344 18.9656 19.4625 18.7219 19.1625 18.5156C18.7875 18.2625 18.3469 18.1031 17.8969 18.0844C17.5781 18.0656 17.2594 18.1219 16.9594 18.2344C16.6594 18.3375 16.3687 18.4875 16.0875 18.6375C15.7594 18.8063 15.4312 18.975 15.0844 19.1156C14.6719 19.2844 14.2406 19.4156 13.8 19.5094C13.2469 19.6125 12.6844 19.65 12.1312 19.6406C11.1281 19.6219 10.125 19.4719 9.16875 19.1906C8.325 18.9375 7.51875 18.5906 6.75937 18.15C6.09375 17.7656 5.475 17.325 4.89375 16.8281C4.41562 16.4156 3.975 15.975 3.5625 15.5063C3.28125 15.1781 3.00937 14.8313 2.75625 14.475C2.65312 14.3344 2.55937 14.1844 2.475 14.0344L0 11.3625V5.31563C0 2.38125 2.37187 0 5.30625 0H10.0406L13.5469 3.5625C21.4594 8.94375 18.9 14.8781 18.9 14.8781C18.9 14.8781 21.15 17.4094 20.25 19.6313Z" fill="url(#paint1_linear)"></path><path d="M13.5657 3.5625C21.4782 8.94375 18.9188 14.8781 18.9188 14.8781C18.9188 14.8781 21.1688 17.4187 20.2595 19.6406C20.2595 19.6406 19.3314 18.0844 17.7751 18.0844C16.2751 18.0844 15.3938 19.6406 12.3751 19.6406C5.65322 19.6406 2.4751 14.025 2.4751 14.025C8.53135 18.0094 12.6657 15.1875 12.6657 15.1875C9.9376 13.6031 4.13447 6.02813 4.13447 6.02813C9.1876 10.3313 11.372 11.4656 11.372 11.4656C10.0688 10.3875 6.4126 5.11875 6.4126 5.11875C9.3376 8.08125 15.1501 12.2156 15.1501 12.2156C16.8001 7.64063 13.5657 3.5625 13.5657 3.5625Z" fill="white"></path></g><defs><linearGradient id="paint0_linear" x1="14.2773" y1="-0.856406" x2="9.74292" y2="24.8593" gradientUnits="userSpaceOnUse"><stop stop-color="#FAAE42"></stop><stop offset="1" stop-color="#EF3E31"></stop></linearGradient><linearGradient id="paint1_linear" x1="12.2449" y1="0.38775" x2="8.92622" y2="19.2087" gradientUnits="userSpaceOnUse"><stop stop-color="#E39F3A"></stop><stop offset="1" stop-color="#D33929"></stop></linearGradient><clipPath id="clip0"><rect width="24" height="24" fill="white"></rect></clipPath></defs></svg>