<svg xmlns="http://www.w3.org/2000/svg" width="22" height="22" viewBox="0 0 22 22" fill="none"><path d="M7.76184 10.9835C7.71631 12.0728 7.96294 13.1545 8.47615 14.1164C8.85768 14.7563 9.44375 15.2488 10.1397 15.5145C10.8357 15.7802 11.6009 15.8036 12.3117 15.5808C12.8056 15.4419 13.2474 15.1602 13.5817 14.7712C13.9161 14.3821 14.1282 13.903 14.1913 13.3939C14.2567 13.0261 14.2601 13.0226 14.2601 13.0226C15.3168 13.1753 17.0197 13.4228 18.0757 13.5726L18.007 13.8401C17.7672 15.0622 17.1987 16.1958 16.3625 17.1188C15.4815 18.0043 14.3357 18.5782 13.0989 18.7536C11.4081 19.0787 9.65926 18.9055 8.06503 18.2552C7.2401 17.9137 6.49906 17.3972 5.89302 16.7416C5.28698 16.0859 4.83036 15.3066 4.55465 14.4574C3.71215 12.2119 3.7163 9.73643 4.56634 7.49375C4.96755 6.33101 5.69484 5.30827 6.66143 4.54758C7.62801 3.7869 8.79306 3.3204 10.0175 3.20375C11.3763 2.97011 12.7723 3.08628 14.0738 3.54132C15.0025 3.86635 15.8337 4.4215 16.4896 5.15489C17.1456 5.88829 17.6049 6.77599 17.8248 7.73507C17.8818 7.94888 17.8935 7.98875 17.8935 7.98875C16.7186 8.20257 15.2666 8.47344 14.0999 8.72782C13.8778 7.5625 13.3285 6.64538 12.1536 6.35938C11.7469 6.23327 11.3191 6.18956 10.8954 6.23082C10.4716 6.27208 10.0603 6.39747 9.68555 6.59965C9.31082 6.80184 8.9802 7.07675 8.71303 7.4083C8.44587 7.73984 8.24754 8.12136 8.12965 8.5305C8.03087 8.81631 7.95252 9.10877 7.89522 9.40569C7.79511 9.92544 7.7504 10.4543 7.76184 10.9835Z" fill="#545454"></path><path d="M1.39771 20.625V1.375H5.47733V2.90606H3.24708V19.0939H5.47733V20.625H1.39771Z" fill="#545454"></path><path d="M20.6023 20.6243H16.5227V19.0925H18.753V2.90533H16.5227V1.37427H20.6023V20.6243Z" fill="#545454"></path></svg>