<svg xmlns="http://www.w3.org/2000/svg" width="216" height="60" viewBox="0 0 216 60" fill="none"><g clip-path="url(#clip0)"><path d="M45.3535 40.5441C43.4865 42.9081 41.1481 44.7467 38.3571 46.0413C35.5661 47.3359 32.4357 47.9738 28.9847 47.9738C22.4221 47.9738 17.2361 45.7974 13.4456 41.4447C10.2586 37.7861 8.67456 33.3584 8.67456 28.1614C8.67456 22.7017 10.5981 18.1051 14.4451 14.3715C18.2922 10.6379 23.1198 8.78052 28.9281 8.78052C32.4357 8.78052 35.6038 9.4747 38.4137 10.8443C41.2424 12.2327 43.5431 14.1651 45.3535 16.6417L42.3927 18.8931C40.7521 16.773 38.7909 15.1783 36.509 14.0901C34.2272 13.0019 31.7002 12.4578 28.9658 12.4578C25.9674 12.4578 23.1953 13.1708 20.6494 14.5967C18.1036 16.0225 16.1235 17.955 14.7091 20.3565C13.3136 22.7768 12.597 25.4785 12.597 28.4991C12.597 33.0582 14.1623 36.8481 17.3115 39.8875C20.442 42.9269 24.4022 44.4653 29.1921 44.4653C34.4535 44.4653 38.8474 42.4203 42.3739 38.3302L55.3482 24.4466H59.5536L45.3535 40.5441Z" fill="white"></path><path d="M55.3671 24.4277H59.5725L45.3535 40.5441L42.3928 38.3114L55.3671 24.4277Z" fill="#315EFF"></path><path d="M45.3723 24.4652H49.2194L67.9454 40.6754V8.79919H71.9999V47.5046H67.9454L45.3723 24.4652Z" fill="#315EFF"></path><path d="M71.981 8.79919H67.9265V47.5046H71.981V8.79919Z" fill="#0842B2"></path><path d="M67.9453 40.6755L49.2192 24.4653L67.9264 47.5047L67.9453 40.6755Z" fill="#0842B2"></path><path d="M77.2612 16.7729V15.6472H83.5976V16.7729H81.014V27.1294H79.8448V16.7729H77.2612Z" fill="white"></path><path d="M85.0684 15.3658H86.1621V20.1688C86.6147 19.5872 87.105 19.1557 87.6331 18.8555C88.1611 18.5553 88.7457 18.424 89.368 18.424C90.0092 18.424 90.5749 18.5929 91.0652 18.9118C91.5555 19.2308 91.9327 19.6623 92.159 20.2064C92.3853 20.7505 92.5173 21.5947 92.5173 22.758V27.1295H91.4235V23.0769C91.4235 22.1013 91.3858 21.4446 91.3104 21.1257C91.1784 20.5628 90.9332 20.1313 90.5749 19.8499C90.2166 19.5685 89.7451 19.4184 89.1605 19.4184C88.5005 19.4184 87.8971 19.6435 87.369 20.075C86.841 20.5066 86.5016 21.0507 86.3318 21.7073C86.2187 22.1201 86.181 22.8893 86.181 24.015V27.1295H85.0872V15.3658H85.0684Z" fill="white"></path><path d="M102.06 24.3152L102.984 24.803C102.682 25.4034 102.324 25.8724 101.928 26.2477C101.532 26.6229 101.079 26.8856 100.589 27.0732C100.098 27.2608 99.5326 27.3546 98.8914 27.3546C97.4959 27.3546 96.4022 26.9043 95.629 25.985C94.8558 25.0657 94.4409 24.0526 94.4409 22.9081C94.4409 21.8387 94.7804 20.8631 95.4404 20.0188C96.289 18.9494 97.4205 18.4053 98.8348 18.4053C100.287 18.4053 101.456 18.9494 102.324 20.0563C102.946 20.8255 103.248 21.8011 103.266 22.9644H95.5724C95.5913 23.9588 95.9118 24.7655 96.5153 25.3846C97.1376 26.0225 97.8919 26.3227 98.7783 26.3227C99.212 26.3227 99.6269 26.2477 100.042 26.0976C100.457 25.9475 100.796 25.7411 101.098 25.4972C101.418 25.2721 101.72 24.8781 102.06 24.3152ZM102.06 22.0263C101.909 21.4447 101.701 20.9756 101.418 20.6192C101.136 20.2627 100.758 19.9813 100.306 19.7749C99.8532 19.5685 99.3629 19.4559 98.8537 19.4559C98.024 19.4559 97.2885 19.7186 96.685 20.2627C96.2513 20.6567 95.9118 21.2383 95.6855 22.0263H102.06Z" fill="white"></path><path d="M88.9343 36.8668L87.388 38.3302C86.3508 37.2233 85.1627 36.6792 83.8615 36.6792C82.7489 36.6792 81.8249 37.0544 81.0705 37.8049C80.3162 38.5554 79.9391 39.4747 79.9391 40.5816C79.9391 41.3509 80.1088 42.0263 80.4482 42.6267C80.7877 43.227 81.2591 43.6961 81.8626 44.0338C82.466 44.3715 83.1449 44.5403 83.8992 44.5403C84.5404 44.5403 85.125 44.4278 85.653 44.1839C86.1811 43.94 86.7657 43.5085 87.388 42.8893L88.8778 44.4278C88.0292 45.2533 87.2183 45.8349 86.4639 46.1539C85.7096 46.4728 84.8421 46.6417 83.8615 46.6417C82.07 46.6417 80.5991 46.0788 79.4487 44.9343C78.2984 43.8086 77.7327 42.3452 77.7327 40.5816C77.7327 39.4372 77.9967 38.424 78.5058 37.5235C79.015 36.6229 79.7693 35.91 80.75 35.3846C81.7117 34.8405 82.7678 34.5779 83.8804 34.5779C84.8421 34.5779 85.7473 34.7843 86.6337 35.1783C87.52 35.5535 88.2932 36.1163 88.9343 36.8668Z" fill="white"></path><path d="M90.6128 37.8236H92.7815V41.9136C92.7815 42.7016 92.838 43.2645 92.9512 43.5647C93.0643 43.8648 93.2341 44.1088 93.4792 44.2964C93.7244 44.4652 94.0261 44.559 94.3844 44.559C94.7427 44.559 95.0444 44.4652 95.2896 44.2964C95.5347 44.1275 95.7233 43.8836 95.8365 43.5459C95.9308 43.302 95.9685 42.7767 95.9685 41.9699V37.8048H98.1183V41.4071C98.1183 42.8892 98.0051 43.9024 97.76 44.4465C97.4771 45.1219 97.0434 45.6285 96.4965 45.9849C95.9308 46.3414 95.233 46.529 94.3655 46.529C93.4226 46.529 92.6683 46.3226 92.0837 45.9099C91.4991 45.4971 91.1031 44.9155 90.8579 44.165C90.6882 43.6585 90.6128 42.7204 90.6128 41.3508V37.8236Z" fill="white"></path><path d="M105.492 39.0244L104.172 40.3378C103.625 39.8124 103.134 39.5498 102.701 39.5498C102.455 39.5498 102.267 39.606 102.135 39.6999C102.003 39.7937 101.927 39.925 101.927 40.0751C101.927 40.1877 101.965 40.3002 102.059 40.394C102.154 40.4878 102.361 40.6192 102.701 40.788L103.493 41.182C104.322 41.5948 104.888 42.0075 105.19 42.4203C105.492 42.8331 105.661 43.3396 105.661 43.9025C105.661 44.6529 105.378 45.2908 104.832 45.7974C104.266 46.304 103.53 46.5479 102.587 46.5479C101.343 46.5479 100.343 46.0601 99.6079 45.1032L100.928 43.6773C101.173 43.9775 101.475 44.2027 101.814 44.3903C102.154 44.5779 102.455 44.6529 102.719 44.6529C103.002 44.6529 103.229 44.5779 103.398 44.4466C103.568 44.3152 103.662 44.1464 103.662 43.9775C103.662 43.6586 103.342 43.3209 102.719 43.0207L102.003 42.6642C100.626 41.97 99.9285 41.107 99.9285 40.0563C99.9285 39.3809 100.193 38.8181 100.702 38.3303C101.23 37.8612 101.89 37.6173 102.701 37.6173C103.248 37.6173 103.776 37.7299 104.266 37.9738C104.737 38.2177 105.152 38.5742 105.492 39.0244Z" fill="white"></path><path d="M107.604 34.7092H109.754V37.8424H111.017V39.6811H109.754V46.3415H107.604V39.6811H106.51V37.8424H107.604V34.7092Z" fill="white"></path><path d="M116.165 37.6173C116.976 37.6173 117.731 37.8237 118.447 38.2177C119.164 38.6117 119.711 39.1558 120.107 39.8499C120.503 40.5441 120.71 41.2758 120.71 42.0826C120.71 42.8893 120.503 43.6398 120.107 44.334C119.711 45.0282 119.164 45.5723 118.466 45.9663C117.768 46.3602 117.014 46.5479 116.184 46.5479C114.959 46.5479 113.921 46.1163 113.054 45.2533C112.186 44.3903 111.753 43.3396 111.753 42.1013C111.753 40.7693 112.243 39.6623 113.224 38.7805C114.072 37.9925 115.053 37.6173 116.165 37.6173ZM116.203 39.6248C115.543 39.6248 114.977 39.8499 114.544 40.319C114.11 40.788 113.884 41.3696 113.884 42.0826C113.884 42.8143 114.11 43.4147 114.544 43.8837C114.977 44.334 115.543 44.5779 116.203 44.5779C116.882 44.5779 117.429 44.3527 117.882 43.8837C118.334 43.4147 118.542 42.8331 118.542 42.1013C118.542 41.3696 118.315 40.788 117.882 40.319C117.448 39.8499 116.882 39.6248 116.203 39.6248Z" fill="white"></path><path d="M122.426 37.8237H124.576V38.7993C124.934 38.4053 125.349 38.1051 125.802 37.8987C126.254 37.6923 126.745 37.5985 127.273 37.5985C127.801 37.5985 128.291 37.7298 128.725 37.9925C129.159 38.2552 129.498 38.6304 129.762 39.137C130.101 38.6304 130.516 38.2552 131.007 37.9925C131.497 37.7298 132.044 37.5985 132.628 37.5985C133.232 37.5985 133.779 37.7486 134.231 38.0113C134.684 38.2927 135.023 38.6679 135.231 39.1182C135.438 39.5685 135.533 40.3002 135.533 41.3321V46.3227H133.383V42.0075C133.383 41.0507 133.27 40.394 133.024 40.0563C132.779 39.7186 132.421 39.5497 131.95 39.5497C131.591 39.5497 131.252 39.6623 130.969 39.8687C130.686 40.0751 130.46 40.3565 130.328 40.7317C130.196 41.107 130.12 41.6886 130.12 42.4953V46.3227H127.971V42.2139C127.971 41.4447 127.914 40.9006 127.801 40.5629C127.688 40.2252 127.518 39.9625 127.292 39.7936C127.065 39.6248 126.801 39.5497 126.481 39.5497C126.122 39.5497 125.802 39.6623 125.5 39.8687C125.217 40.0751 124.991 40.3752 124.84 40.7505C124.689 41.1257 124.633 41.7261 124.633 42.5516V46.3227H122.483V37.8237H122.426Z" fill="white"></path><path d="M141.416 34.8406H143.585L145.244 42.1764L147.3 34.8406H149.129L151.222 42.1764L152.882 34.8406H155.051L152.448 46.3228H150.336L148.205 38.8931L146.112 46.3228H144.019L141.416 34.8406Z" fill="white"></path><path d="M165.083 42.7016H158.2C158.294 43.302 158.558 43.7898 158.992 44.1463C159.426 44.5028 159.973 44.6904 160.651 44.6904C161.444 44.6904 162.141 44.409 162.707 43.8461L164.517 44.6904C164.065 45.3283 163.537 45.7973 162.896 46.0975C162.273 46.3977 161.519 46.5478 160.651 46.5478C159.313 46.5478 158.219 46.135 157.37 45.2908C156.522 44.4465 156.107 43.3958 156.107 42.1388C156.107 40.8442 156.522 39.7748 157.37 38.9118C158.219 38.0487 159.256 37.636 160.538 37.636C161.877 37.636 162.971 38.0675 163.82 38.9118C164.668 39.7748 165.083 40.9005 165.083 42.3076V42.7016ZM162.952 41.0131C162.801 40.544 162.537 40.1501 162.122 39.8499C161.708 39.5497 161.217 39.3996 160.67 39.3996C160.067 39.3996 159.558 39.5684 159.105 39.9061C158.822 40.1125 158.558 40.4878 158.313 41.0131H162.952Z" fill="white"></path><path d="M168.949 34.5591V38.7805C169.345 38.3865 169.76 38.1051 170.212 37.9174C170.665 37.7298 171.137 37.636 171.665 37.636C172.777 37.636 173.72 38.0488 174.512 38.893C175.285 39.7373 175.681 40.8067 175.681 42.1201C175.681 43.3771 175.285 44.4465 174.474 45.2908C173.664 46.1351 172.721 46.5666 171.608 46.5666C171.118 46.5666 170.665 46.4728 170.231 46.3039C169.816 46.1351 169.383 45.8537 168.968 45.4409V46.3415H166.837V34.5591H168.949ZM171.212 39.5872C170.533 39.5872 169.986 39.8124 169.534 40.2814C169.081 40.7317 168.874 41.3321 168.874 42.0825C168.874 42.833 169.1 43.4522 169.534 43.9212C169.986 44.3902 170.533 44.6154 171.212 44.6154C171.872 44.6154 172.419 44.3715 172.871 43.9024C173.324 43.4334 173.55 42.833 173.55 42.0825C173.55 41.3508 173.324 40.7505 172.89 40.2814C172.419 39.8124 171.872 39.5872 171.212 39.5872Z" fill="white"></path><path d="M182.659 39.0244L181.339 40.3378C180.792 39.8124 180.302 39.5498 179.868 39.5498C179.623 39.5498 179.434 39.606 179.302 39.6999C179.17 39.7937 179.095 39.925 179.095 40.0751C179.095 40.1877 179.132 40.3002 179.227 40.394C179.321 40.4878 179.528 40.6192 179.868 40.788L180.66 41.182C181.49 41.5948 182.055 42.0075 182.357 42.4203C182.659 42.8331 182.829 43.3396 182.829 43.9025C182.829 44.6529 182.546 45.2908 181.999 45.7974C181.433 46.304 180.698 46.5479 179.755 46.5479C178.51 46.5479 177.511 46.0601 176.775 45.1032L178.095 43.6773C178.34 43.9775 178.642 44.2027 178.982 44.3903C179.321 44.5779 179.623 44.6529 179.887 44.6529C180.17 44.6529 180.396 44.5779 180.566 44.4466C180.735 44.3152 180.83 44.1464 180.83 43.9775C180.83 43.6586 180.509 43.3209 179.887 43.0207L179.17 42.6642C177.793 41.97 177.096 41.107 177.096 40.0563C177.096 39.3809 177.36 38.8181 177.869 38.3303C178.397 37.8612 179.057 37.6173 179.868 37.6173C180.415 37.6173 180.943 37.7299 181.433 37.9738C181.905 38.2177 182.319 38.5742 182.659 39.0244Z" fill="white"></path><path d="M185.337 34.334C185.714 34.334 186.034 34.4653 186.298 34.7467C186.562 35.0094 186.694 35.3471 186.694 35.7224C186.694 36.0976 186.562 36.4353 186.298 36.698C186.034 36.9606 185.714 37.092 185.337 37.092C184.959 37.092 184.639 36.9606 184.356 36.6792C184.092 36.3978 183.96 36.0788 183.96 35.6848C183.96 35.3096 184.092 34.9906 184.356 34.728C184.658 34.4653 184.978 34.334 185.337 34.334ZM184.281 37.8237H186.43V46.3227H184.281V37.8237Z" fill="white"></path><path d="M188.618 34.7092H190.768V37.8424H192.031V39.6811H190.768V46.3415H188.618V39.6811H187.524V37.8424H188.618V34.7092Z" fill="white"></path><path d="M201.743 42.7016H194.86C194.954 43.302 195.218 43.7898 195.652 44.1463C196.086 44.5028 196.633 44.6904 197.311 44.6904C198.104 44.6904 198.801 44.409 199.367 43.8461L201.177 44.6904C200.725 45.3283 200.197 45.7973 199.556 46.0975C198.933 46.3977 198.179 46.5478 197.311 46.5478C195.973 46.5478 194.879 46.135 194.03 45.2908C193.182 44.4465 192.767 43.3958 192.767 42.1388C192.767 40.8442 193.182 39.7748 194.03 38.9118C194.879 38.0487 195.916 37.636 197.198 37.636C198.537 37.636 199.631 38.0675 200.48 38.9118C201.328 39.7748 201.743 40.9005 201.743 42.3076V42.7016ZM199.593 41.0131C199.442 40.544 199.178 40.1501 198.764 39.8499C198.349 39.5497 197.858 39.3996 197.311 39.3996C196.708 39.3996 196.199 39.5684 195.746 39.9061C195.463 40.1125 195.199 40.4878 194.954 41.0131H199.593Z" fill="white"></path><path d="M208.702 39.0244L207.382 40.3378C206.835 39.8124 206.345 39.5498 205.911 39.5498C205.666 39.5498 205.477 39.606 205.345 39.6999C205.213 39.7937 205.138 39.925 205.138 40.0751C205.138 40.1877 205.175 40.3002 205.27 40.394C205.364 40.4878 205.571 40.6192 205.911 40.788L206.703 41.182C207.533 41.5948 208.098 42.0075 208.4 42.4203C208.702 42.8331 208.871 43.3396 208.871 43.9025C208.871 44.6529 208.589 45.2908 208.042 45.7974C207.476 46.304 206.741 46.5479 205.798 46.5479C204.553 46.5479 203.554 46.0601 202.818 45.1032L204.138 43.6773C204.383 43.9775 204.685 44.2027 205.024 44.3903C205.364 44.5779 205.666 44.6529 205.93 44.6529C206.213 44.6529 206.439 44.5779 206.609 44.4466C206.778 44.3152 206.873 44.1464 206.873 43.9775C206.873 43.6586 206.552 43.3209 205.93 43.0207L205.213 42.6642C203.836 41.97 203.139 41.107 203.139 40.0563C203.139 39.3809 203.403 38.8181 203.912 38.3303C204.44 37.8612 205.1 37.6173 205.911 37.6173C206.458 37.6173 206.986 37.7299 207.476 37.9738C207.947 38.2177 208.362 38.5742 208.702 39.0244Z" fill="white"></path></g><defs><clipPath id="clip0"><rect width="216" height="60" fill="white"></rect></clipPath></defs></svg>