<svg xmlns="http://www.w3.org/2000/svg" width="73" height="35" viewBox="0 0 73 35" fill="none"><path d="M27.5351 18.8143C26.4218 18.82 25.4542 19.0881 24.6441 19.4845C24.3467 18.8958 24.0494 18.3713 23.9971 17.9865C23.9387 17.5378 23.8688 17.2638 23.9387 16.7275C24.0087 16.1913 24.3234 15.4276 24.3176 15.3694C24.3118 15.3111 24.2476 15.0371 23.6064 15.0314C22.9653 15.0255 22.4116 15.1538 22.3474 15.3228C22.2833 15.4918 22.1609 15.8765 22.0793 16.2728C21.9686 16.8558 20.7971 18.9365 20.1268 20.0265C19.9111 19.6011 19.7246 19.228 19.6837 18.9308C19.6254 18.482 19.5554 18.208 19.6254 17.6718C19.6954 17.1355 20.0102 16.372 20.0043 16.3136C19.9984 16.2554 19.9343 15.9814 19.2932 15.9756C18.6519 15.9698 18.0982 16.098 18.0342 16.267C17.9701 16.4361 17.9001 16.8324 17.7661 17.2171C17.6319 17.6019 16.0757 21.0759 15.6677 21.9734C15.5028 22.3366 15.3298 22.6962 15.1489 23.0518C15.1489 23.0518 15.1431 23.0693 15.1256 23.0984C15.0687 23.2099 15.0105 23.3206 14.9508 23.4306V23.4364C14.8633 23.5939 14.7701 23.7395 14.7234 23.7395C14.6884 23.7395 14.6243 23.3199 14.7351 22.7486C14.9682 21.5421 15.5219 19.6653 15.5162 19.6011C15.5162 19.5661 15.6211 19.2398 15.1548 19.0706C14.7001 18.9016 14.5369 19.1814 14.4961 19.1814C14.4553 19.1814 14.4261 19.2805 14.4261 19.2805C14.4261 19.2805 14.9333 17.1705 13.4586 17.1705C12.5377 17.1705 11.2669 18.1789 10.6374 19.0881C9.92183 19.4776 9.20683 19.8681 8.49244 20.2598C8.14869 20.4521 7.79306 20.6445 7.46081 20.8251C7.43744 20.8019 7.41419 20.7726 7.39081 20.7494C5.60718 18.8434 2.30818 17.4969 2.44806 14.9381C2.50056 14.0055 2.82106 11.5574 8.78394 8.58475C13.6917 6.16575 17.5971 6.836 18.2732 8.32238C19.2407 10.4441 16.1807 14.3844 11.1096 14.9555C9.17443 15.1713 8.16018 14.4251 7.90381 14.1454C7.63568 13.8539 7.59481 13.8364 7.49569 13.8948C7.33256 13.9823 7.43744 14.2445 7.49569 14.396C7.64731 14.7923 8.27094 15.4918 9.32594 15.8358C10.2586 16.1388 12.5259 16.3079 15.2713 15.247C18.3431 14.0579 20.7446 10.753 20.0393 7.98438C19.3339 5.17488 14.6709 4.24813 10.2586 5.816C7.63568 6.74875 4.79118 8.2175 2.74531 10.1294C0.314685 12.4025 -0.0700651 14.3785 0.0873099 15.2063C0.65281 18.1439 4.70381 20.0557 6.32419 21.4721C6.24256 21.5187 6.16669 21.5596 6.10268 21.5946C5.29244 21.9967 2.20318 23.6112 1.43381 25.3191C0.55956 27.2542 1.57381 28.6416 2.24406 28.828C4.32493 29.4051 6.46406 28.3676 7.61231 26.6539C8.76056 24.9403 8.62069 22.7136 8.09031 21.6936C8.08444 21.682 8.07869 21.6702 8.06694 21.6586C8.27681 21.5362 8.49244 21.408 8.70231 21.2856C9.08804 21.0576 9.47868 20.838 9.87393 20.6269C9.67568 21.169 9.52993 21.816 9.46006 22.7486C9.37256 23.8445 9.82131 25.2666 10.4101 25.8261C10.6724 26.0711 10.9813 26.0769 11.1796 26.0769C11.8673 26.0769 12.1763 25.5056 12.5202 24.8295C12.9398 24.0019 13.3187 23.0401 13.3187 23.0401C13.3187 23.0401 12.8466 25.6397 14.1289 25.6397C14.5952 25.6397 15.0673 25.0335 15.2772 24.7246V24.7304C15.2772 24.7304 15.2888 24.7129 15.3122 24.6721C15.3588 24.5964 15.3879 24.5496 15.3879 24.5496V24.5381C15.5744 24.2116 15.9942 23.4714 16.6178 22.2415C17.4222 20.6561 18.1974 18.6744 18.1974 18.6744C18.1974 18.6744 18.2674 19.1581 18.5063 19.9625C18.6463 20.4346 18.9376 20.9534 19.1708 21.4546C18.9843 21.717 18.8677 21.8626 18.8677 21.8626L18.8736 21.8685C18.7219 22.0666 18.5588 22.2823 18.3781 22.4923C17.7427 23.2499 16.9851 24.1185 16.8801 24.369C16.7576 24.6663 16.7868 24.882 17.0201 25.0569C17.1891 25.1851 17.4921 25.2025 17.8011 25.1851C18.3723 25.1443 18.7744 25.0044 18.9726 24.917C19.2816 24.8062 19.6429 24.6371 19.9809 24.3865C20.6047 23.926 20.9834 23.2674 20.9486 22.399C20.9311 21.921 20.7737 21.443 20.5813 20.9941C20.6397 20.9126 20.6921 20.831 20.7504 20.7494C21.7354 19.3096 22.4991 17.73 22.4991 17.73C22.4991 17.73 22.5691 18.2138 22.8079 19.0183C22.9246 19.4263 23.1636 19.8693 23.3733 20.3005C22.4466 21.0525 21.8753 21.9267 21.6713 22.498C21.3042 23.5589 21.5897 24.0367 22.1318 24.1475C22.3766 24.2 22.7263 24.0834 22.9828 23.9726C23.3092 23.8678 23.6939 23.6871 24.0612 23.4189C24.6849 22.9585 25.2852 22.3173 25.2502 21.4489C25.2327 21.0525 25.1278 20.6619 24.9821 20.283C25.7689 19.9568 26.7832 19.776 28.0771 19.9275C30.8517 20.2539 31.3996 21.985 31.2946 22.7138C31.1897 23.4423 30.6068 23.8386 30.4146 23.961C30.2221 24.0835 30.1581 24.1242 30.1756 24.2116C30.1988 24.3399 30.2921 24.3341 30.4553 24.3107C30.6827 24.27 31.9126 23.722 31.9649 22.3814C32.0524 20.6677 30.4203 18.7968 27.5351 18.8143ZM6.13181 26.0303C5.21081 27.0328 3.92856 27.4116 3.37481 27.0911C2.78031 26.7471 3.01344 25.2666 4.14419 24.2059C4.83193 23.5589 5.71794 22.9584 6.30668 22.5912C6.44068 22.5096 6.63894 22.3931 6.87793 22.2474C6.91868 22.224 6.94206 22.2124 6.94206 22.2124L7.08193 22.1249C7.49569 23.6404 7.09944 24.9753 6.13181 26.0303ZM12.8349 21.4721C12.5143 22.2532 11.8441 24.2525 11.4361 24.1418C11.0863 24.0485 10.8706 22.533 11.3661 21.035C11.6167 20.283 12.1471 19.3854 12.4561 19.0358C12.9573 18.4761 13.5111 18.2895 13.6451 18.517C13.8142 18.8143 13.0331 20.9825 12.8349 21.4721ZM18.3664 24.1184C18.2323 24.1884 18.1042 24.235 18.0458 24.2C18.0051 24.1766 18.1042 24.0834 18.1042 24.0834C18.1042 24.0834 18.7978 23.3374 19.0717 22.9993C19.2292 22.8011 19.4156 22.568 19.6138 22.3056V22.3814C19.6138 23.2732 18.7511 23.8736 18.3663 24.1184H18.3664ZM22.6331 23.145C22.5339 23.075 22.5514 22.8419 22.8837 22.1133C23.0119 21.8276 23.3149 21.3498 23.8338 20.8893C23.8921 21.0758 23.9329 21.2565 23.9271 21.4255C23.9212 22.5505 23.1169 22.9701 22.6331 23.145Z" fill="#CD6799"></path><g clip-path="url(#clip0)"><path d="M71.5069 15.4766C71.5069 14.3555 71.6819 13.6938 71.6819 12.4906C71.6819 10.6203 70.9929 10.0188 69.4671 10.0188H68.346V11.3422H68.6905C69.4671 11.3422 69.6366 11.5992 69.6366 12.5508C69.6366 13.4422 69.5491 14.3336 69.5491 15.3672C69.5491 16.6906 69.9812 17.2047 70.8397 17.4071V17.4946C69.9757 17.6969 69.5491 18.211 69.5491 19.5344C69.5491 20.568 69.6366 21.4047 69.6366 22.3508C69.6366 23.3297 69.4343 23.5867 68.6905 23.5867V23.6141H68.346V24.9922H69.4671C70.9874 24.9922 71.6819 24.3906 71.6819 22.5203C71.6819 21.2844 71.5069 20.65 71.5069 19.5344C71.5069 18.9328 71.8788 18.2985 72.9999 18.2438V16.7508C71.8788 16.7125 71.5069 16.0781 71.5069 15.4766ZM65.7319 17.2266C64.8679 16.8821 64.064 16.6797 64.064 16.1055C64.064 15.6735 64.4085 15.4164 65.0429 15.4164C65.6772 15.4164 66.2515 15.6735 66.8804 16.1328L68.0288 14.6125C67.3124 14.0656 66.3335 13.4914 65.0101 13.4914C63.0577 13.4914 61.7343 14.6125 61.7343 16.193C61.7343 17.5985 62.9702 18.3203 64.0038 18.7196C64.8952 19.0641 65.7593 19.3539 65.7593 19.9281C65.7593 20.3602 65.4147 20.6446 64.6382 20.6446C63.9218 20.6446 63.1999 20.3547 62.4233 19.7531L61.2749 21.4211C62.139 22.1375 63.4569 22.6297 64.5507 22.6297C66.8476 22.6297 68.0835 21.4211 68.0835 19.8406C68.0835 18.2602 66.853 17.5985 65.7319 17.2266ZM46.1046 20.475C45.9022 20.475 45.6452 20.3 45.6452 19.7586V10.0133H41.5655C40.0124 10.0133 39.3233 10.6149 39.3233 12.4852C39.3233 13.7211 39.4983 14.4102 39.4983 15.4711C39.4983 16.0727 39.1265 16.7071 38.0054 16.7617V18.2547C39.1265 18.2821 39.4983 18.9164 39.4983 19.518C39.4983 20.5789 39.3233 21.2133 39.3233 22.4492C39.3233 24.3196 40.0124 24.9211 41.5382 24.9211H42.6593V23.5977H42.3147C41.5983 23.5977 41.3687 23.3078 41.3687 22.3617C41.3687 21.4156 41.4562 20.6063 41.4562 19.5453C41.4562 18.2219 41.0241 17.7078 40.1655 17.5055V17.418C41.0296 17.2157 41.4562 16.7016 41.4562 15.3781C41.4562 14.3446 41.3687 13.5078 41.3687 12.5617C41.3687 11.6156 41.571 11.3531 42.3147 11.3531H43.0858V19.6C43.0858 21.3555 43.6874 22.5039 45.4429 22.5039C45.9897 22.5039 46.4218 22.4164 46.7335 22.3016L46.4437 20.4313C46.2741 20.475 46.1921 20.475 46.1046 20.475ZM58.7757 17.2266C57.8843 16.8821 57.0804 16.6797 57.0804 16.1055C57.0804 15.6735 57.4249 15.4164 58.0593 15.4164C58.6937 15.4164 59.2679 15.6735 59.8968 16.1328L61.0452 14.6125C60.3288 14.0656 59.3499 13.4914 58.0265 13.4914C56.0741 13.4914 54.7507 14.6125 54.7507 16.193C54.7507 17.5985 55.9866 18.3203 57.0202 18.7196C57.9116 19.0641 58.7757 19.3539 58.7757 19.9281C58.7757 20.3602 58.4312 20.6446 57.6546 20.6446C56.9382 20.6446 56.2163 20.3547 55.4397 19.7531L54.3187 21.4211C55.1827 22.1375 56.5007 22.6297 57.5944 22.6297C59.8913 22.6297 61.1273 21.4211 61.1273 19.8406C61.1327 18.2602 59.8968 17.5985 58.7757 17.2266ZM50.2991 13.4641C48.1991 13.4641 46.1921 15.2196 46.2468 17.9758C46.2468 20.8196 48.1171 22.4875 50.5835 22.4875C51.6171 22.4875 52.7655 22.1157 53.6569 21.5086L52.7929 19.9883C52.1585 20.3602 51.5569 20.5352 50.9226 20.5352C49.7741 20.5352 48.8827 19.9883 48.653 18.6649H53.8593C53.8866 18.4625 53.9468 18.0633 53.9468 17.6039C53.9796 15.2742 52.7108 13.4641 50.2991 13.4641ZM48.6585 17.0844C48.8335 15.936 49.5226 15.3891 50.3265 15.3891C51.3601 15.3891 51.7647 16.1055 51.7647 17.0844H48.6585Z" fill="#30508F"></path></g><defs><clipPath id="clip0"><rect width="35" height="35" fill="white" transform="translate(38)"></rect></clipPath></defs></svg>