<svg xmlns="http://www.w3.org/2000/svg" width="24" height="24" viewBox="0 0 24 24" fill="none"><g clip-path="url(#clip0)"><path d="M12.0142 -0.000133816C13.9621 -0.000133816 15.7961 0.454928 17.5166 1.33646L17.7441 1.45027L17.545 1.60665C17.0617 1.99055 16.6778 2.48818 16.436 3.05686L16.3649 3.21324L16.2228 3.14218C14.9004 2.51658 13.4929 2.18958 12.0284 2.18958C6.61134 2.18958 2.21803 6.59714 2.21803 12C2.21803 17.4028 6.59709 21.8104 12.0142 21.8104C17.4313 21.8104 21.8246 17.4029 21.8246 12C21.8246 10.7062 21.5829 9.44077 21.0711 8.24639L21 8.09002L21.1564 8.01896C21.7393 7.80567 22.2512 7.45027 22.6635 6.99521L22.8199 6.79618L22.9194 7.02371C23.6446 8.60189 24 10.2796 24 11.9715C24 18.5829 18.6113 23.9715 12 23.9715C5.38866 23.9715 0 18.5829 0 11.9716C0 5.36039 5.38866 -0.0283526 12.0142 -0.000133816ZM12.0142 6.54024C15.0142 6.54024 17.474 8.9858 17.4881 12.0142C17.4881 15.0426 15.0427 17.4882 12.0142 17.4882C8.98575 17.4882 6.54028 15.0426 6.54028 12.0142C6.54028 8.9858 9 6.54024 12.0142 6.54024V6.54024ZM19.8484 2.01896C21.2303 2.01896 22.3508 3.13927 22.3508 4.52133C22.3508 5.9033 21.2304 7.02371 19.8484 7.02371C18.4663 7.02371 17.346 5.90339 17.346 4.52133C17.346 3.13927 18.4663 2.01896 19.8484 2.01896V2.01896Z" fill="#3880FF"></path></g><defs><clipPath id="clip0"><rect width="24" height="24" fill="white"></rect></clipPath></defs></svg>